<?xml version="1.0" encoding="UTF-8"?><svg xmlns="http://www.w3.org/2000/svg" viewBox="0 0 337.73 109.18"><defs><style>.d{letter-spacing:-.08em;}.e,.f{fill:#fff;}.f{font-family:Kanit-Bold, Kanit;font-size:50.55px;}.g{letter-spacing:0em;}</style></defs><g id="a"/><g id="b"><g id="c"><g><text class="f" transform="translate(97 90.12)"><tspan class="d" x="0" y="0">W</tspan><tspan x="41.25" y="0">orm</tspan><tspan class="g" x="135.83" y="0">h</tspan><tspan x="166.06" y="0">ole</tspan></text><path class="e" d="M45.52,88.9c-7.62-.02-15.11-2.01-21.75-5.76-.98-.56-1.59-.39-2.52,.13-3.08,1.7-6.22,3.33-9.42,4.79-1.14,.43-2.35,.63-3.57,.6-4.31,.13-7.23-2.35-7.95-6.63-.79-4.54,.05-8.93,1.27-13.26,.76-2.71,2.33-5.35,2.38-8.04s-1.51-5.37-2.04-8.13C-2.23,31.04,10.14,9.71,30.92,2.59c12.88-4.41,25.27-3.2,37.05,3.68,.77,.54,1.79,.54,2.55,0,3.89-2.12,8.1-3.59,12.47-4.35,2.54-.47,3.2,.03,3.54,2.56,.81,6.08,.03,12.02-1.48,17.92-.18,.78-.11,1.59,.21,2.32,12.23,25.39-.86,54.67-27.93,62.49-1.7,.5-3.43,.87-5.19,1.11-2.21,.27-4.43,.38-6.62,.57ZM65.58,9.31c-.22-.18-.45-.35-.69-.51-8.15-4.45-16.85-6.07-25.99-4.45C20.26,7.64,7.17,22.62,5.27,38.72c-1.86,15.74,3.52,28.54,15.96,38.39,.82,.64,1.41,.81,2.22,0,5-4.92,10.15-9.73,15.08-14.73,2.78-2.82,5.5-5.79,6.58-9.83-1.57-1.6-1.61-2.04-.36-4.09,.32-.45,.61-.93,.86-1.42,.12-.29,.17-.82,0-.99-1.01-1.04-.56-2.03,0-3.03,.39-.7,.84-1.37,1.48-2.41-.88,.32-1.39,.47-1.87,.69-2.45,1.14-4.89,2.32-7.35,3.45-.94,.43-2.08,.78-2.67-.29-.37-.81-.4-1.73-.09-2.56,1.27-3,2.7-5.94,4.12-8.86,1.23-2.52,3.38-3.89,6.05-4.49,1.51-.32,3.07-.43,4.58-.75,.56-.11,1.05-.45,1.36-.92,3.2-6.99,8.14-13.04,14.37-17.56Zm-4.89,41.65l-.44-.11c-.42,.58-.9,1.12-1.41,1.62-.61,.5-1.53,1.35-2.01,1.18-1.6-.58-2.17,.52-2.95,1.37-1.76,1.95-1.8,1.97-4.36,.86-7.73,8.03-14.58,17.04-23.64,23.9,11.99,7.56,32.51,7.91,46.93-5.31,14.83-13.59,15.93-33.74,9.79-45.89-2.35,4.99-5.64,9.47-9.69,13.21-.96,.87-1.11,1.67-.83,2.9,.67,3.21,1.52,6.71-.78,9.45-2.66,3.15-5.84,5.89-8.95,8.63-1.28,1.11-2.78,.22-2.78-1.51,0-1,.07-1.99,.2-2.98,.27-2.43,.59-4.87,.91-7.32ZM77.2,10.46c-2.28-2.28-2.38-2.42-4.74-.93-2.99,1.78-5.83,3.8-8.5,6.04-5.7,5.08-9.72,11.78-11.54,19.19-.27,1.05-.19,1.77,.83,2.35,.99,.63,1.95,1.3,2.87,2.03,.31-.46,.56-.81,.79-1.18,1.46-2.35,2.88-4.72,4.36-7.05,.56-.92,1.35-1.47,2.5-.8s1.29,1.57,.72,2.67c-.28,.56-.61,1.05-.93,1.57l-4.32,7.09c.9,.6,1.77,1.25,2.6,1.95,.97,.91,1.75,.89,2.87,.14,10.25-6.77,16.16-16.28,18.04-28.35,.04-.41-.1-.81-.38-1.11-.74-.65-1.58-1.19-2.39-1.77,2.3,3.78,2.2,7.51-.38,10.2-2.32,2.42-6.21,2.72-9.3,.73-2.89-1.87-3.89-5.12-2.59-8.45,1.41-3.65,4.56-5.11,9.49-4.3h0ZM6.55,65.78c-1.61,3.38-3.06,10.56-2.85,13.89,.25,3.93,2.1,5.84,5.38,5.29,3.72-.63,6.88-2.55,10.09-4.72-5.19-3.86-9.5-8.8-12.62-14.47ZM77.88,17.26c0-1.9-1.56-3.43-3.46-3.42h-.04c-1.91,.05-3.44,1.61-3.46,3.52,.09,1.9,1.65,3.41,3.55,3.44,1.91-.06,3.42-1.63,3.41-3.53Zm-26.93,32.24c.41-.06,.73-.21,.93-.11,1.83,.96,2.51-.49,3.39-1.56,.98-1.17,1.96-2.34,3.83-1.78l-7.35-5.35c.96,1.36,.56,2.53-.21,3.62-.97,1.44-2.08,2.78-.68,4.58,.09,.13,.06,.33,.09,.61v-.02Zm-1.67-17.64c-5-.16-8.08,2.58-8.41,7.34,2.3-1.04,4.56-2.04,6.8-3.1,.38-.21,.66-.55,.8-.96,.32-1.03,.52-2.08,.81-3.27v-.02Zm14.56,24.41c5.17-3.75,6.04-5.9,4.39-10.53-.71,.44-1.44,.82-2.08,1.31-.56,.41-1.34,.89-1.43,1.43-.38,2.49-.57,5.01-.87,7.79ZM83.12,9.89c-.13-1.67-.22-2.81-.32-4.16l-3.89,1.11,4.21,3.05Z"/></g></g></g></svg>