<svg id="Livello_1" data-name="Livello 1" xmlns="http://www.w3.org/2000/svg" viewBox="0 0 161.66 159.98"><defs><style>.cls-1{fill:#fff;}</style></defs><path class="cls-1" d="M271.06,393.48a80,80,0,0,1-39.13-10.36c-1.76-1-2.86-.7-4.54.23-5.55,3.06-11.2,6-16.95,8.62a17,17,0,0,1-6.42,1.08c-7.76.23-13-4.23-14.31-11.93-1.42-8.17.09-16.06,2.29-23.85,1.36-4.87,4.19-9.62,4.29-14.46s-2.72-9.67-3.67-14.62a79.27,79.27,0,0,1,52.17-90c23.17-7.94,45.47-5.76,66.66,6.63a4,4,0,0,0,4.59,0A72.57,72.57,0,0,1,338.47,237c4.57-.85,5.76.06,6.37,4.61,1.45,10.94.06,21.63-2.67,32.24a6.63,6.63,0,0,0,.38,4.17c22,45.68-1.54,98.37-50.25,112.43a66.08,66.08,0,0,1-9.33,2C279,392.94,275,393.14,271.06,393.48Zm36.09-143.21a15.3,15.3,0,0,0-1.24-.91c-14.67-8-30.31-10.93-46.76-8-33.54,5.91-57.09,32.87-60.52,61.83-3.35,28.32,6.34,51.35,28.71,69.07,1.47,1.16,2.53,1.46,4,0,9-8.86,18.26-17.5,27.13-26.51,5-5.08,9.9-10.42,11.84-17.68-2.82-2.88-2.9-3.67-.65-7.36a19.74,19.74,0,0,0,1.54-2.56c.22-.52.3-1.47,0-1.79-1.82-1.87-1-3.66,0-5.45.7-1.26,1.51-2.46,2.67-4.34-1.58.58-2.5.84-3.37,1.24-4.41,2.06-8.8,4.17-13.22,6.21-1.69.78-3.75,1.41-4.81-.52a6,6,0,0,1-.16-4.61c2.28-5.4,4.85-10.68,7.41-15.95,2.22-4.54,6.08-7,10.89-8.07,2.72-.58,5.52-.77,8.24-1.35a3.85,3.85,0,0,0,2.45-1.66A80.23,80.23,0,0,1,307.15,250.27Zm-8.79,74.93-.79-.19a23,23,0,0,1-2.54,2.92c-1.1.9-2.76,2.42-3.61,2.12-2.88-1.05-3.91.93-5.3,2.47-3.17,3.51-3.23,3.54-7.84,1.55-13.91,14.44-26.23,30.66-42.53,43,21.58,13.6,58.49,14.23,84.44-9.55,26.69-24.45,28.66-60.7,17.62-82.57a76.81,76.81,0,0,1-17.44,23.76c-1.73,1.57-2,3-1.5,5.21,1.21,5.77,2.73,12.08-1.4,17-4.78,5.67-10.5,10.6-16.1,15.52-2.3,2-5,.39-5-2.71a41.84,41.84,0,0,1,.36-5.36C297.22,334,297.8,329.6,298.36,325.2Zm29.69-72.86c-4.11-4.1-4.29-4.36-8.53-1.68a116.4,116.4,0,0,0-15.29,10.86,68,68,0,0,0-20.76,34.53c-.49,1.89-.35,3.18,1.5,4.23a62.88,62.88,0,0,1,5.17,3.65c.55-.82,1-1.45,1.42-2.12,2.62-4.23,5.19-8.49,7.85-12.69,1-1.66,2.42-2.65,4.5-1.44s2.33,2.82,1.3,4.8c-.5,1-1.1,1.89-1.67,2.82l-7.78,12.75a52.13,52.13,0,0,1,4.67,3.51c1.75,1.64,3.14,1.6,5.17.26,18.45-12.18,29.08-29.29,32.45-51a2.6,2.6,0,0,0-.69-2c-1.33-1.17-2.85-2.14-4.3-3.19,4.13,6.8,3.95,13.51-.69,18.35-4.17,4.35-11.18,4.89-16.74,1.31-5.2-3.36-7-9.22-4.66-15.21C313.51,253.51,319.18,250.88,328.05,252.34ZM200.94,351.87c-2.9,6.08-5.51,19-5.13,25,.45,7.08,3.77,10.51,9.68,9.52,6.69-1.13,12.37-4.58,18.16-8.49A81.46,81.46,0,0,1,200.94,351.87Zm128.34-87.3a6.19,6.19,0,0,0-6.29-6.16,6.41,6.41,0,0,0-6.23,6.33,6.51,6.51,0,0,0,6.39,6.19A6.33,6.33,0,0,0,329.28,264.57Zm-48.46,58c.73-.1,1.32-.38,1.67-.2,3.29,1.72,4.51-.89,6.1-2.8,1.76-2.1,3.53-4.21,6.89-3.2l-13.23-9.62c1.72,2.44,1,4.55-.37,6.51-1.75,2.59-3.74,5-1.22,8.24C280.82,321.73,280.76,322.1,280.82,322.6Zm-3-31.74c-9-.29-14.54,4.64-15.14,13.21,4.14-1.88,8.21-3.67,12.23-5.58a3.14,3.14,0,0,0,1.44-1.72C276.92,294.89,277.29,293,277.8,290.86ZM304,334.75c9.3-6.74,10.87-10.62,7.89-18.94-1.28.79-2.59,1.48-3.75,2.36-1,.74-2.41,1.6-2.57,2.57C304.88,325.22,304.54,329.76,304,334.75Zm34.71-83.44c-.23-3-.39-5.06-.58-7.48l-7,2Z" transform="translate(-189.16 -233.5)"/></svg>