<svg width="39" height="40" viewBox="0 0 39 40" fill="none" xmlns="http://www.w3.org/2000/svg">
<path d="M19.8569 40C8.90846 40 0 31.0292 0 20C0 8.97079 8.90846 0 19.8569 0C24.8169 0 29.5645 1.85122 33.2297 5.21399L33.8973 5.8288L27.3492 12.4253L26.7422 11.9022C24.8203 10.2446 22.3757 9.33084 19.8569 9.33084C14.0168 9.33084 9.26251 14.1168 9.26251 20C9.26251 25.8832 14.0168 30.6692 19.8569 30.6692C24.0684 30.6692 27.3964 28.502 28.9643 24.8098H18.9937V15.805L38.4595 15.8322L38.6045 16.5217C39.6194 21.3757 38.8068 28.5156 34.6931 33.6243C31.2875 37.8533 26.2972 40 19.8569 40Z" fill="black"/>
</svg>
