<?xml version="1.0" encoding="UTF-8"?><svg xmlns="http://www.w3.org/2000/svg" viewBox="0 0 50.08 49.77"><defs><style>.d{fill:#fff;}</style></defs><g id="a"/><g id="b"><g id="c"><path class="d" d="M28.98,49.77v-.34c0-5.59,0-11.17,0-16.76q0-.35,.35-.35c1.72,0,3.44,0,5.16,0,.24,0,.34-.07,.38-.32,.33-2.23,.68-4.47,1.03-6.7,.04-.23-.05-.28-.26-.28-2.11,0-4.21,0-6.32,0q-.34,0-.34-.33c0-1.47,0-2.95,0-4.42,0-.88,.19-1.71,.73-2.43,.66-.88,1.6-1.28,2.66-1.33,1.17-.06,2.34-.04,3.51-.05,.33,0,.33,0,.33-.34,0-1.86,0-3.72,0-5.58,0-.2-.04-.3-.26-.33-1.93-.27-3.87-.5-5.82-.44-1.93,.06-3.75,.5-5.36,1.62-1.79,1.24-2.83,2.99-3.34,5.08-.23,.94-.34,1.9-.34,2.87,0,1.77,0,3.54,0,5.31q0,.39-.4,.39c-1.87,0-3.74,0-5.6,0-.34,0-.35,0-.35,.33,0,2.21,0,4.42,0,6.64,0,.32,0,.32,.33,.32,1.89,0,3.78,0,5.68,0,.34,0,.34,0,.34,.33,0,5.59,0,11.19,0,16.78,0,.34,0,.35-.34,.29-4.71-.83-8.86-2.82-12.42-6.02-4.1-3.69-6.79-8.23-7.83-13.66-1.53-8.03,.33-15.23,5.66-21.44C9.98,4.17,14.82,1.43,20.57,.42c6.93-1.21,13.35,.19,19.07,4.3,5.46,3.93,8.87,9.25,10.02,15.88,1.35,7.78-.55,14.77-5.69,20.8-3.82,4.48-8.7,7.2-14.49,8.29-.15,.03-.3,.05-.5,.08Z"/></g></g></svg>