<?xml version="1.0" encoding="UTF-8"?><svg xmlns="http://www.w3.org/2000/svg" xmlns:xlink="http://www.w3.org/1999/xlink" viewBox="0 0 321.12 109.36"><defs><style>.e{fill:#fff;}.f{fill:url(#d);}</style><linearGradient id="d" x1="0" y1="54.68" x2="109.35" y2="54.68" gradientTransform="matrix(1, 0, 0, 1, 0, 0)" gradientUnits="userSpaceOnUse"><stop offset="0" stop-color="#ffb600"/><stop offset=".55" stop-color="#d4145a"/><stop offset="1" stop-color="#00b1ff"/></linearGradient></defs><g id="a"/><g id="b"><g id="c"><path class="f" d="M109.33,5.84c-.13-1.98-.77-3.49-1.92-4.49-2.29-2.01-6.21-1.78-11.65,.69-4.86,2.21-10.82,6.18-17.24,11.49-4.48-1.33-9.27-1.71-14.07-.99-8.6,1.28-16.19,5.83-21.37,12.81-1.55,2.09-2.83,4.33-3.83,6.67-9.45-2.75-18.78-1.69-26.34,3.02-6.31,3.93-10.7,10.14-11.73,16.61-2.03,12.78,4.76,28.65,21.27,33.48l-3.02,6.11c-.15,.3-.11,.65,.09,.91,.17,.22,.42,.34,.69,.34,.06,0,.12,0,.17-.02l7.5-1.54c.85,1.32,3.16,4.83,4.93,6.7l-9.28,7.58c-.26,.21-.37,.55-.3,.87,.07,.32,.33,.57,.65,.65l11.1,2.59c.06,.02,.13,.02,.2,.02,.11,0,.23-.02,.34-.07l10.87-4.56c3.08,1.25,6.17,2.35,8.61,2.94,4.23,1.02,8.44,1.53,12.6,1.53,4.4,0,8.76-.57,13.03-1.71,.24-.06,.44-.23,.55-.45,.11-.22,.12-.49,.02-.72-3.29-7.95-8.48-14.84-15.44-20.47-1.95-1.58-4.7-3.37-7.57-5.05l-.76-2.91c.84-.66,1.69-1.34,2.54-2.05,3.01,.89,6.09,1.35,9.2,1.35,1.62,0,3.25-.12,4.88-.36,8.6-1.28,16.19-5.83,21.37-12.81,5.18-6.98,7.32-15.55,6.04-24.13-.44-2.91-1.26-5.74-2.45-8.41,6.79-10.73,10.67-20.06,10.31-25.63h0Zm-38.43,8.13c1.58,.08,3.14,.29,4.67,.61-1.86,6.35-9.31,14.98-12.59,16.09-.33,.11-.61,.13-.71,.05-.15-.13-.08-.68,.4-1.63,.59-1.17,1.65-2.67,2.77-4.26,2.46-3.49,5.22-7.41,5.46-10.86h0Zm-26.43,12.41c4.9-6.6,12.09-10.91,20.23-12.13,1.49-.22,2.98-.33,4.46-.34-.25,2.97-2.95,6.79-5.15,9.91-2.62,3.72-4.69,6.66-2.87,8.21,.28,.24,.71,.46,1.33,.46,.31,0,.66-.06,1.06-.19,2.43-.82,5.74-4.25,8.04-7.18,2.8-3.58,4.83-7.22,5.68-10.15,3.06,.82,5.98,2.11,8.65,3.81-.4,3.57-3.58,8.79-6.4,13.42-3.48,5.7-5.77,9.47-3.96,11.09,.26,.24,.68,.48,1.28,.48,.2,0,.43-.03,.67-.09,4.06-1.05,12.36-12.54,15.18-19.02,.81,.94,1.56,1.94,2.26,2.99-4.35,7.2-10.57,15.59-17.87,23.88-.53,.6-1.06,1.2-1.6,1.79-1.15-.11-4.06-.17-7.09,1.67-1.44,.87-3.49,2.85-5.87,5.14-2.79,2.68-5.93,5.7-8.88,7.75l-2.88-2.37c4.19-3.12,8.81-8.05,12.83-13.72,3.18-4.49,6.46-10.27,6.16-13.04-.12-1.13-.79-1.55-1.18-1.71-2.06-.83-4.64,2.35-9.38,8.51-1.75,2.27-3.6,4.68-5.45,6.81,1.81-2.88,3.14-5.74,2.73-7.45-.17-.71-.61-1.25-1.26-1.54-2.31-1.05-5.1,1.98-8.64,5.81-2.14,2.32-4.34,4.7-6.3,5.95-.68-1.9-1.19-3.87-1.49-5.89-1.22-8.12,.82-16.24,5.72-22.84h0Zm51.44-.4c-3.03-4.31-7.02-7.74-11.55-10.1,9.62-7.33,14.78-8.48,16.42-7.04,.47,.41,.74,1.09,.8,2.03,.21,3.2-1.9,8.59-5.67,15.11h0Zm-4.53-2.72c-2.53,6.61-11.12,17.92-14.32,18.75-.07,.02-.29,.07-.36,0,0,0-.33-.43,.7-2.63,.81-1.72,2.16-3.93,3.58-6.27,2.7-4.43,5.71-9.37,6.5-13.23,1.39,1.01,2.69,2.14,3.9,3.38h0Zm-36.17,46.13c-.04-.14-.11-.27-.21-.37,2.95-2.11,5.99-5.03,8.7-7.64,2.3-2.22,4.29-4.13,5.57-4.9,1.73-1.05,3.43-1.37,4.63-1.44-6.07,6.58-12.32,12.51-18,17.03l-.7-2.68Zm-9.08,5.3l.33-10.53,1.44,1.18v10.05c-.7-.3-1.29-.54-1.77-.7h0Zm-17.71-1.57c-6.29-1-11.77-4.14-15.11-8.67-2.93-3.97-4.04-8.67-3.21-13.61,.87-5.23,4.6-9.83,10.48-12.96,5.19-2.75,11.67-4.16,17.93-3.93-1.75,4.94-2.28,10.27-1.48,15.6,.44,2.92,1.26,5.73,2.44,8.39-2.47,3.91-4.55,7.6-6.18,11.01l-.62-1.29c-.14-.3-.45-.49-.78-.49h0c-.33,0-.63,.19-.78,.48l-2.69,5.46Zm19.06-14c.27,.32,.73,.4,1.09,.19,3.88-2.21,8.18-7.79,11.97-12.72,1.77-2.3,3.44-4.47,4.83-5.97,1.94-2.1,2.53-1.99,2.53-1.99,.07,.03,.1,.26,.1,.29,.16,1.49-1.6,5.83-5.85,11.84-4.03,5.69-8.66,10.6-12.79,13.59l-3.24-2.66c-.26-.21-.61-.26-.91-.12-.3,.14-.5,.43-.51,.76l-.03,.93c-1.53-2.01-2.8-4.2-3.79-6.51,2.25-1.34,4.63-3.91,6.94-6.41,2.31-2.51,5.48-5.94,6.65-5.41,.14,.06,.24,.15,.29,.36,.41,1.71-2.45,6.7-7.29,12.72-.26,.33-.25,.79,.02,1.11h0Zm-7.12,.59c.36,.69,.74,1.36,1.15,2.02-2.82,4.79-4.78,9.01-5.71,12.32l-1.53-3.17c1.56-3.43,3.61-7.18,6.09-11.17h0Zm2.22,3.64c.62,.88,1.29,1.74,2.01,2.56l-.26,8.41c-1.95-.21-4.84-.08-6.8,.05,.86-2.97,2.59-6.73,5.06-11.01h0ZM2.9,51.92c.95-5.98,5.04-11.74,10.93-15.41,5.41-3.37,11.8-4.75,18.5-4.08-4.47,.56-8.83,1.87-12.55,3.85-6.37,3.38-10.42,8.42-11.38,14.2-.9,5.41,.31,10.57,3.53,14.93,3.52,4.77,9.19,8.1,15.71,9.26l-4.39,8.88C7.47,79.1,.98,64.03,2.9,51.92h0Zm28.99,18.03l2.64,5.45-6.82,13.81-5.93,1.22,10.11-20.47Zm2.27,28.84c.42,.28,.97,.61,1.63,.97l-7.98,6.12-1.81-.42,8.16-6.67Zm.95,8.79l-5.11-1.19,7.47-5.73c1.88,.97,4.22,2.07,6.67,3.13l-9.04,3.8Zm33.99-.14l5.06-10.25c1.99,2.77,3.68,5.73,5.06,8.87-3.33,.82-6.7,1.27-10.12,1.38h0Zm3.89-11.81l-5.84,11.83c-3.88-.04-7.8-.53-11.74-1.48-7.01-1.69-18.93-7.47-20.73-8.95-1.47-1.21-4.17-5.22-5.38-7.11l6.76-13.7c2.24-.19,7.05-.48,8.91-.05,2.27,.53,14.1,6.48,19.71,11.02,3.15,2.55,5.92,5.37,8.31,8.43h0Zm-23.52-19.44v-9.42l4.06,3.33,2.48,9.48c-2.33-1.31-4.63-2.49-6.54-3.4h0Zm24.34-1.09c-4.13,.62-8.23,.41-12.21-.62,5.34-4.55,10.83-9.87,16.21-15.71-.2,2.62-1.67,5.4-4.47,8.45-.28,.3-.31,.76-.07,1.09,.24,.33,.67,.46,1.05,.3,3.32-1.43,6.61-4.78,9.52-7.73,1.47-1.5,2.86-2.91,4.02-3.81,1.39-1.09,1.86-.98,1.98-.92,.18,.24,.04,2.24-3.94,7.54-3.02,4.02-7.01,8.26-10.48,11.13-.53,.11-1.07,.2-1.62,.29h0Zm20.23-12.13c-3.8,5.12-8.97,8.85-14.89,10.84,5.92-5.61,12.8-14.22,12.45-17.7-.07-.68-.4-1.21-.95-1.5-2.02-1.08-4.55,1.49-8.05,5.04-1.55,1.58-3.23,3.28-4.92,4.7,1.52-2.57,2.11-5.02,1.8-7.42,.55-.61,1.1-1.22,1.64-1.84,.94-1.06,1.85-2.13,2.75-3.19,.45,.16,1.09,.32,1.9,.32,.99,0,2.22-.24,3.63-1,3.17-1.71,6.77-6.54,10.29-11.35,.01,.09,.03,.18,.05,.27,1.22,8.12-.81,16.24-5.72,22.84h0Zm5.21-25.42l-.45,.62c-3.39,4.65-7.23,9.92-10.2,11.52-1.51,.81-2.71,.86-3.48,.74,4.86-5.85,9.18-11.68,12.77-17.19,.56,1.4,1.02,2.84,1.36,4.31h0Zm1.23-11.82c-5.08,8.88-12.22,18.63-20.66,28.21-7.54,8.56-15.42,16.18-22.86,22.11l-.56-2.15c6.9-5.42,14.68-12.93,21.98-21.22,15.17-17.23,25.43-34.46,24.95-41.9-.09-1.41-.56-2.5-1.39-3.22-3.91-3.43-13.6,3.07-19.31,7.5-.71-.32-1.43-.61-2.16-.88C92.78,4.16,102.83-.36,106.27,2.65c.79,.69,1.24,1.8,1.33,3.3,.27,4.24-2.25,11.27-7.12,19.77h0ZM60.57,103.36c.82,.4,1.7,.61,2.58,.61,.63,0,1.26-.1,1.88-.31,1.48-.5,2.67-1.55,3.36-2.95,1.42-2.89,.24-6.4-2.65-7.82-1.4-.69-2.98-.79-4.46-.29s-2.67,1.55-3.36,2.95c-1.43,2.89-.24,6.39,2.65,7.82h0Zm-1.09-7.05c.49-.98,1.32-1.72,2.36-2.07,.43-.15,.88-.22,1.32-.22,.62,0,1.24,.14,1.81,.43,2.03,1,2.86,3.47,1.86,5.5-.49,.98-1.32,1.72-2.36,2.07-1.04,.35-2.15,.28-3.13-.21-2.03-1-2.86-3.47-1.86-5.5Zm-20.35-13.69l-5.29,.2h0c-.33-.04-.63,.15-.78,.45-.15,.3-.11,.65,.09,.91l3.23,4.19c.08,.1,.18,.19,.3,.25l11.71,5.78c.12,.06,.25,.09,.38,.09,.07,0,.14,0,.22-.03l3.47-.89c.24-.06,.45-.23,.56-.46,.11-.23,.12-.49,.02-.72l-1.4-3.29c-.08-.19-.23-.35-.41-.44l-11.71-5.78c-.12-.06-.25-.09-.38-.09v-.17Zm-3.52,1.95h3.32l1.56,.78-1.29,2.62-1.56-.77-2.03-2.63Zm15.44,7.57l-2.17,.56-8.12-4.01,1.29-2.62,8.12,4.01,.88,2.07ZM.58,71.55c.45-.16,.95,.08,1.11,.53,2.14,6.09,6.51,10.7,13,13.7,.43,.2,.62,.72,.42,1.15-.15,.32-.46,.5-.79,.5-.12,0-.25-.03-.36-.08-6.93-3.21-11.61-8.15-13.91-14.7-.16-.45,.08-.95,.53-1.11h0ZM23.56,39.5c-.17-.45,.06-.95,.51-1.12,2.15-.8,4.64-1.43,7.59-1.93,.47-.08,.92,.24,1,.71,.08,.47-.24,.92-.71,1-2.84,.48-5.22,1.08-7.28,1.84-.1,.04-.2,.05-.3,.05-.35,0-.68-.22-.81-.57h0Zm3.78,29.66c-.12,.37-.46,.61-.83,.61-.08,0-.17-.01-.26-.04-5.6-1.73-9.71-4.86-11.89-9.05-1.94-3.74-2.26-8.12-.89-12.33,.99-3.06,2.92-5.59,5.73-7.51,.4-.27,.94-.17,1.21,.23s.17,.94-.23,1.21c-2.52,1.72-4.18,3.89-5.06,6.62-1.22,3.77-.94,7.68,.78,11,1.96,3.77,5.71,6.6,10.86,8.19,.46,.14,.71,.63,.57,1.09h0Z"/><g><path class="e" d="M95.23,108.86l-7.49-32.16h9.19l3.64,17.03,3.54-12.18v-4.84h7.69l4.89,17.08,3.84-17.08h9.19l-7.44,32.16h-8.49l-4.84-16.63-5.24,16.63h-8.49Z"/><path class="e" d="M136.87,109.36c-1.5,0-2.89-.27-4.17-.8-1.28-.53-2.31-1.36-3.07-2.5-.77-1.13-1.15-2.56-1.15-4.29,0-2.5,.83-4.44,2.5-5.82,1.66-1.38,4.18-2.07,7.54-2.07h6.14v-.45c0-.93-.38-1.61-1.15-2.05-.77-.43-2.11-.65-4.04-.65-2.73,0-5.43,.42-8.09,1.25v-5.64c1.2-.47,2.7-.86,4.49-1.17,1.8-.32,3.63-.47,5.49-.47,3.76,0,6.74,.77,8.94,2.3,2.2,1.53,3.3,3.96,3.3,7.29v14.58h-8.19l-.45-1.9c-.83,.73-1.91,1.32-3.22,1.75-1.32,.43-2.94,.65-4.87,.65Zm3.2-5.49c1.07,0,1.97-.18,2.72-.55,.75-.37,1.37-.82,1.87-1.35v-2.95h-4.54c-2.06,0-3.1,.82-3.1,2.45s1.01,2.4,3.05,2.4Z"/><path class="e" d="M157.84,108.86v-23.67h9.04l.25,1.9c.97-.57,2.2-1.08,3.7-1.55,1.5-.47,3.01-.75,4.54-.85v6.99c-.87,.07-1.81,.18-2.82,.35-1.02,.17-2,.37-2.95,.62-.95,.25-1.74,.52-2.37,.82v15.38h-9.39Z"/><path class="e" d="M178.01,108.86v-23.67h8.69l.25,1.9c1.03-.7,2.19-1.27,3.47-1.72,1.28-.45,2.69-.67,4.22-.67s2.73,.22,3.6,.65c.87,.43,1.56,1.07,2.1,1.9,1.06-.76,2.27-1.38,3.62-1.85,1.35-.47,2.94-.7,4.77-.7,2.76,0,4.79,.72,6.09,2.17s1.95,3.65,1.95,6.62v15.38h-9.24v-14.28c0-1.07-.22-1.82-.65-2.27-.43-.45-1.15-.67-2.15-.67-1.3,0-2.36,.47-3.2,1.4,.07,.43,.1,.84,.1,1.22v14.61h-8.69v-14.43c0-.97-.17-1.67-.5-2.12-.33-.45-.97-.67-1.9-.67-.63,0-1.25,.17-1.85,.5-.6,.33-1.13,.73-1.6,1.2v15.53h-9.09Z"/><path class="e" d="M221,108.86v-33.65h9.39v11.43c.83-.57,1.87-1.03,3.12-1.4,1.25-.37,2.59-.55,4.02-.55,3.26,0,5.64,.76,7.14,2.27,1.5,1.52,2.25,3.85,2.25,7.02v14.88h-9.44v-14.18c0-1.1-.22-1.88-.67-2.35-.45-.47-1.26-.7-2.42-.7-.7,0-1.42,.17-2.17,.5-.75,.33-1.36,.73-1.82,1.2v15.53h-9.39Z"/><path class="e" d="M263.7,109.36c-4.73,0-8.21-1.05-10.46-3.15s-3.37-5.16-3.37-9.19,1.13-7.05,3.4-9.16c2.26-2.11,5.74-3.17,10.44-3.17s8.23,1.06,10.51,3.17c2.28,2.11,3.42,5.17,3.42,9.16s-1.13,7.09-3.4,9.19c-2.26,2.1-5.78,3.15-10.54,3.15Zm0-6.84c1.53,0,2.64-.43,3.32-1.3,.68-.87,1.02-2.26,1.02-4.19s-.34-3.29-1.02-4.17c-.68-.88-1.79-1.32-3.32-1.32s-2.58,.44-3.25,1.32c-.67,.88-1,2.27-1,4.17s.33,3.33,1,4.19c.67,.87,1.75,1.3,3.25,1.3Z"/><path class="e" d="M289.16,109.36c-2.9,0-4.96-.62-6.19-1.85-1.23-1.23-1.85-3.16-1.85-5.79v-26.51h9.39v25.47c0,.73,.15,1.22,.45,1.47,.3,.25,.76,.37,1.4,.37,.43,0,.86-.03,1.27-.1,.42-.07,.81-.17,1.17-.3v6.24c-.87,.33-1.71,.58-2.52,.75-.82,.17-1.86,.25-3.12,.25Z"/><path class="e" d="M310.08,109.36c-2.76,0-5.2-.46-7.32-1.37-2.11-.92-3.76-2.29-4.94-4.12-1.18-1.83-1.77-4.09-1.77-6.79,0-3.76,1.06-6.77,3.2-9.01,2.13-2.25,5.31-3.37,9.54-3.37,3.86,0,6.88,.98,9.06,2.95,2.18,1.96,3.27,4.64,3.27,8.04v4.14h-16.43c.43,1.27,1.28,2.16,2.55,2.7,1.26,.53,2.98,.8,5.14,.8,1.36,0,2.74-.12,4.12-.37,1.38-.25,2.49-.54,3.32-.87v5.64c-2.33,1.1-5.58,1.65-9.74,1.65Zm-5.39-14.63h8.34v-.85c0-.93-.29-1.7-.87-2.3-.58-.6-1.61-.9-3.07-.9-1.63,0-2.77,.34-3.42,1.02-.65,.68-.97,1.69-.97,3.02Z"/></g></g></g></svg>