<?xml version="1.0" encoding="UTF-8"?><svg xmlns="http://www.w3.org/2000/svg" viewBox="0 0 48.9 50.09"><defs><style>.d{fill:#fff;}</style></defs><g id="a"/><g id="b"><g id="c"><path class="d" d="M41.47,6.24l-7.28,7.28s-.12-.07-.19-.12c-1.85-1.45-3.92-2.41-6.22-2.86-.98-.19-1.97-.29-2.97-.27-3.5,.09-6.63,1.22-9.32,3.48-2.05,1.72-3.5,3.86-4.4,6.38-.58,1.62-.83,3.29-.83,5.01,0,2.36,.54,4.59,1.62,6.68,1.62,3.12,4.05,5.38,7.27,6.79,1.41,.62,2.88,.98,4.41,1.14,1.15,.12,2.3,.08,3.45-.04,1.29-.14,2.54-.4,3.76-.83,1.9-.68,3.57-1.72,4.93-3.22,1.36-1.49,2.22-3.25,2.66-5.21,.02-.07,.01-.14,.03-.25-.16,0-.3-.03-.44-.03-3.35,0-6.7,0-10.06,0-.79,0-1.58,0-2.37,0-.08,0-.17,0-.25,0-.21-.02-.24-.05-.25-.27,0-.06,0-.12,0-.19,0-2.94,0-5.87,0-8.81,0-.03,0-.06,0-.09,0-.33,.03-.35,.36-.35,.07,0,.15,0,.22,0,7.4,0,14.8,0,22.2,0,.58,0,.55-.06,.67,.56,.23,1.15,.4,2.31,.43,3.48,.03,1.37-.03,2.73-.18,4.1-.23,2.01-.66,3.97-1.32,5.88-.97,2.79-2.4,5.33-4.33,7.57-1.79,2.08-3.9,3.78-6.31,5.09-2.51,1.36-5.17,2.24-7.99,2.66-.9,.13-1.81,.2-2.72,.26-.92,.06-1.83,.02-2.74-.04-1.83-.12-3.62-.44-5.38-.96-1.65-.48-3.23-1.13-4.75-1.94-1.49-.79-2.88-1.73-4.17-2.82-.59-.5-1.17-1-1.71-1.54-1.42-1.43-2.67-3.01-3.71-4.74-1.57-2.61-2.63-5.41-3.18-8.39-.17-.94-.31-1.88-.34-2.84-.03-.94-.07-1.89-.05-2.83,.03-1.14,.17-2.27,.37-3.4,.46-2.59,1.31-5.04,2.54-7.36,1.02-1.93,2.28-3.68,3.77-5.28,2.23-2.39,4.83-4.27,7.79-5.64,2.04-.95,4.18-1.6,6.41-1.96,1.06-.17,2.12-.28,3.19-.32,5.12-.19,9.83,1.1,14.17,3.8,1.02,.64,1.99,1.36,2.92,2.12,.1,.08,.19,.17,.28,.25,.02,.02,.03,.05,.03,.05Z"/></g></g></svg>